# xmcd
#
# Track frame offsets:
# 150
# 19321
# 36323
# 51404
# 109904
# 132137
# 150984
# 197450
#
# Disc length: 3799 seconds
#
#
# Revision: 0
# Processed by: cddbd v1.4PL0 Copyright (c) Steve Scherf et al.
# Submitted via: FreeRIP 2.00 
#
DISCID=650ed508
DTITLE=Allman Brothers Band - The Filmore Concerts Disc 1
DYEAR=1971
DGENRE=Blues
TTITLE0=Statesboro Blues
TTITLE1=Trouble No More
TTITLE2=Dont Keep Me Wonderin
TTITLE3=In Memory Of Elizabeth Reed
TTITLE4=One Way Out
TTITLE5=Done Somebody Wrong
TTITLE6=Stormy Monday
TTITLE7=You Dont Love Me
EXTD=
EXTT0=
EXTT1=
EXTT2=
EXTT3=
EXTT4=
EXTT5=
EXTT6=
EXTT7=
PLAYORDER=
